# xmcd CD database file
#
# Track frame offsets:
#	150
#	14305
#	29703
#	42500
#	55260
#	72501
#	85010
#	101226
#	110856
#	128377
#
# Disc length: 1893 seconds
#
# Revision: 0
# Processed by: cddbd v1.5.2PL0 Copyright (c) Steve Scherf et al.
# Submitted via: CDex 1.70beta2
#
DISCID=8b07630a
DTITLE=Martin, Amber (10) - USA - Cty. - Your Heart's Not In It
DYEAR=2010
DGENRE=Country
TTITLE0=Rose Garden
TTITLE1=Old Flames
TTITLE2=Your Heart's Not In It
TTITLE3=Blue
TTITLE4=Down On My Knees
TTITLE5=Jolene
TTITLE6=Is It Over Yet
TTITLE7=Back In Baby's Arms
TTITLE8=Unchained Melody
TTITLE9=Amazing Grace
EXTD=YEAR: 2010
EXTT0=
EXTT1=
EXTT2=
EXTT3=
EXTT4=
EXTT5=
EXTT6=
EXTT7=
EXTT8=
EXTT9=
PLAYORDER=
